Coordinates
version=1
nRows=7
nColumns=40
inDegrees=yes

Units are S.I. units (second, meters, Newtons, ...)
If the header above contains a line with 'inDegrees', this indicates whether rotational values are in degrees (yes) or radians (no).

endheader
time	pelvis_tilt	pelvis_list	pelvis_rotation	pelvis_tx	pelvis_ty	pelvis_tz	hip_flexion_r	hip_adduction_r	hip_rotation_r	knee_angle_r	knee_angle_r_beta	ankle_angle_r	subtalar_angle_r	mtp_angle_r	hip_flexion_l	hip_adduction_l	hip_rotation_l	knee_angle_l	knee_angle_l_beta	ankle_angle_l	subtalar_angle_l	mtp_angle_l	lumbar_extension	lumbar_bending	lumbar_rotation	arm_flex_r	arm_add_r	arm_rot_r	elbow_flex_r	pro_sup_r	wrist_flex_r	wrist_dev_r	arm_flex_l	arm_add_l	arm_rot_l	elbow_flex_l	pro_sup_l	wrist_flex_l	wrist_dev_l
      2.26500000	     -8.35936872	     -2.68307437	     -2.20121199	      0.17212766	      0.45067270	     -1.21255486	     98.55698522	    -47.40351530	     17.53321726	    120.56937676	      2.10433260	     35.14569732	     15.46229560	      0.00000000	    108.43450845	    -49.44187095	     29.37037715	    121.15642216	      2.11457848	     32.24968977	     24.37775368	      0.00000000	    -28.67575624	      1.75226279	     -2.16934132	     44.99992434	    -14.99999999	     44.99992434	     75.00017585	     45.00000026	      0.00000000	      0.00000000	     44.99992434	    -14.99999999	     44.99992434	     75.00017585	     45.00000026	      0.00000000	      0.00000000
      2.27000000	     -8.78199198	     -2.67718203	     -2.24205394	      0.17172582	      0.45360977	     -1.21236844	     98.38399016	    -47.34208418	     16.90570776	    120.10014415	      2.09614295	     34.94534738	     15.40798789	      0.00000000	    108.24305145	    -49.43809790	     28.77101217	    120.68282696	      2.10631268	     32.04956168	     24.22923299	      0.00000000	    -28.08346575	      1.75451771	     -2.16063078	     44.99992434	    -14.99999999	     44.99992434	     75.00017585	     45.00000026	      0.00000000	      0.00000000	     44.99992434	    -14.99999999	     44.99992434	     75.00017585	     45.00000026	      0.00000000	      0.00000000
      2.27500000	     -9.18683564	     -2.67196701	     -2.28809022	      0.17130523	      0.45666125	     -1.21217151	     98.16957474	    -47.25080793	     16.25886138	    119.62146460	      2.08778841	     34.71113397	     15.27589470	      0.00000000	    107.99902449	    -49.42744067	     28.14575492	    120.20404742	      2.09795640	     31.81647738	     23.97707171	      0.00000000	    -27.50724738	      1.75590457	     -2.14662447	     44.99992434	    -14.99999999	     44.99992434	     75.00017585	     45.00000026	      0.00000000	      0.00000000	     44.99992434	    -14.99999999	     44.99992434	     75.00017585	     45.00000026	      0.00000000	      0.00000000
      2.28000000	     -9.59072390	     -2.66940776	     -2.32894925	      0.17091520	      0.45977845	     -1.21197916	     97.95068590	    -47.17226977	     15.60933554	    119.13994131	      2.07938425	     34.48643315	     15.14237238	      0.00000000	    107.74827126	    -49.41634932	     27.51496057	    119.71326799	      2.08939068	     31.59378141	     23.73589841	      0.00000000	    -26.92645193	      1.75146874	     -2.12920617	     44.99992434	    -14.99999999	     44.99992434	     75.00017585	     45.00000026	      0.00000000	      0.00000000	     44.99992434	    -14.99999999	     44.99992434	     75.00017585	     45.00000026	      0.00000000	      0.00000000
      2.28500000	     -9.97517353	     -2.66054623	     -2.37189063	      0.17054202	      0.46295532	     -1.21174964	     97.70519672	    -47.08674165	     14.95316377	    118.65152029	      2.07085969	     34.25545219	     14.99153486	      0.00000000	    107.46896669	    -49.41324583	     26.87595433	    119.21820708	      2.08075024	     31.36762966	     23.47756090	      0.00000000	    -26.32094474	      1.74671125	     -2.11034456	     44.99992434	    -14.99999999	     44.99992434	     75.00017585	     45.00000026	      0.00000000	      0.00000000	     44.99992434	    -14.99999999	     44.99992434	     75.00017585	     45.00000026	      0.00000000	      0.00000000
      2.29000000	    -10.10322496	     -2.62314464	     -2.38389773	      0.16999994	      0.46724605	     -1.21158012	     97.10496992	    -47.00876099	     14.17751595	    118.06662969	      2.06065142	     33.74697082	     14.08065238	      0.00000000	    106.70364723	    -49.40801026	     25.92775165	    118.63882948	      2.07063820	     30.95162665	     22.37023607	      0.00000000	    -26.14757443	      1.76149298	     -2.01801737	     44.99992434	    -14.99999999	     44.99992434	     75.00017585	     45.00000026	      0.00000000	      0.00000000	     44.99992434	    -14.99999999	     44.99992434	     75.00017585	     45.00000026	      0.00000000	      0.00000000
      2.29500000	    -10.54400297	     -2.61166110	     -2.42846764	      0.16976394	      0.47029925	     -1.21133568	     96.91342340	    -46.92538065	     13.55453794	    117.58404505	      2.05222873	     33.60242341	     14.12730247	      0.00000000	    106.47584909	    -49.39611512	     25.33698978	    118.14027688	      2.06193681	     30.80863237	     22.37964793	      0.00000000	    -25.46150795	      1.75014776	     -2.00508365	     44.99992434	    -14.99999999	     44.99992434	     75.00017585	     45.00000026	      0.00000000	      0.00000000	     44.99992434	    -14.99999999	     44.99992434	     75.00017585	     45.00000026	      0.00000000	      0.00000000
